<svg xmlns="http://www.w3.org/2000/svg" width="135" height="39" viewBox="0 0 135 39">
    <g fill="none" fill-rule="evenodd">
        <rect width="135" height="38.571" fill="#000" rx="19.286"/>
        <g fill="#FFF">
            <path d="M49.757 27.643l-.951-2.186H44.06l-.938 2.186h-1.299l3.999-9h1.286l3.985 9h-1.337zm-5.207-3.304h3.78l-1.903-4.372-1.877 4.372zm11.52-3.536c.634 0 1.2.146 1.697.437a3 3 0 0 1 1.157 1.221c.275.523.412 1.123.412 1.8 0 .669-.135 1.263-.405 1.781-.27.519-.652.922-1.145 1.209-.492.287-1.056.43-1.69.43-.575 0-1.08-.12-1.517-.36a2.582 2.582 0 0 1-1.029-1.028v3.844h-1.196v-9.296h1.196v1.35c.249-.445.59-.788 1.022-1.028.433-.24.932-.36 1.498-.36zm-.231 5.837c.437 0 .829-.103 1.176-.309.347-.205.617-.492.81-.861a2.65 2.65 0 0 0 .29-1.247c0-.454-.1-.866-.296-1.234a2.181 2.181 0 0 0-.81-.862 2.23 2.23 0 0 0-1.17-.308c-.438 0-.83.102-1.177.308-.347.206-.62.493-.816.862-.197.368-.296.78-.296 1.234 0 .471.099.89.296 1.253.197.365.469.65.816.855.347.206.74.309 1.177.309zm8.948-5.837c.634 0 1.2.146 1.697.437a3 3 0 0 1 1.157 1.221c.275.523.412 1.123.412 1.8 0 .669-.135 1.263-.405 1.781-.27.519-.652.922-1.144 1.209-.493.287-1.057.43-1.691.43-.574 0-1.08-.12-1.517-.36a2.582 2.582 0 0 1-1.029-1.028v3.844h-1.196v-9.296h1.196v1.35c.249-.445.59-.788 1.022-1.028.433-.24.932-.36 1.498-.36zm-.231 5.837c.437 0 .829-.103 1.176-.309.347-.205.617-.492.81-.861a2.65 2.65 0 0 0 .29-1.247c0-.454-.1-.866-.296-1.234a2.181 2.181 0 0 0-.81-.862 2.23 2.23 0 0 0-1.17-.308c-.437 0-.83.102-1.177.308-.347.206-.619.493-.816.862-.197.368-.296.78-.296 1.234 0 .471.099.89.296 1.253.197.365.47.65.816.855.347.206.74.309 1.177.309zm5.233-8.537h1.195v9.54H69.79v-9.54zm6.325 2.7c1.055 0 1.852.31 2.392.932.54.621.81 1.485.81 2.59 0 .172-.005.3-.013.386h-5.374c.094.609.349 1.093.765 1.453.415.36.927.54 1.536.54.403 0 .778-.073 1.125-.218.347-.146.65-.352.906-.617l.656.681c-.334.36-.737.639-1.208.836a4.028 4.028 0 0 1-1.569.295c-.669 0-1.262-.143-1.78-.43a3.026 3.026 0 0 1-1.21-1.215c-.286-.523-.43-1.119-.43-1.787 0-.669.144-1.263.43-1.781a3.136 3.136 0 0 1 1.203-1.222c.514-.295 1.101-.443 1.761-.443zm2.122 2.983c-.035-.617-.24-1.104-.617-1.46-.378-.355-.875-.533-1.492-.533-.6 0-1.1.18-1.498.54-.398.36-.636.844-.713 1.453h4.32zM89.69 20.52a5.177 5.177 0 0 0-1.305-.598 4.41 4.41 0 0 0-1.24-.2c-.523 0-.941.102-1.254.303-.313.201-.47.478-.47.83 0 .316.095.576.284.777.188.202.42.36.694.476.274.116.656.25 1.144.405.609.188 1.102.368 1.479.54.377.171.698.426.964.765.266.338.399.786.399 1.343 0 .515-.14.965-.418 1.35-.279.386-.669.684-1.17.894-.502.21-1.078.315-1.73.315a5.03 5.03 0 0 1-1.928-.386 5.23 5.23 0 0 1-1.62-1.028l.553-1.067c.428.42.91.743 1.446.97.536.227 1.057.341 1.562.341.6 0 1.074-.118 1.421-.354.347-.235.52-.555.52-.957 0-.318-.093-.579-.282-.785a1.994 1.994 0 0 0-.714-.488c-.287-.12-.675-.253-1.163-.399-.6-.18-1.089-.356-1.466-.527a2.532 2.532 0 0 1-.958-.759c-.261-.334-.392-.775-.392-1.324 0-.48.133-.904.399-1.273.265-.368.638-.651 1.118-.848.48-.197 1.037-.296 1.672-.296.54 0 1.069.08 1.588.238.518.158.979.37 1.382.636l-.515 1.106zm6.198 6.673c-.523.334-1.055.501-1.595.501s-.977-.16-1.311-.482c-.334-.321-.502-.808-.502-1.46v-3.766h-.964v-.913h.964v-1.826h1.209v1.826h2.083v.913H93.69v3.548c0 .377.069.647.206.81.137.163.343.245.617.245.326 0 .677-.108 1.054-.322l.322.926zm4.281-6.39c.677 0 1.28.146 1.806.437.528.291.939.696 1.235 1.215.295.519.443 1.112.443 1.78 0 .67-.148 1.265-.443 1.788-.296.523-.707.93-1.235 1.221-.527.292-1.129.437-1.806.437-.686 0-1.292-.145-1.82-.437a3.145 3.145 0 0 1-1.234-1.215c-.295-.518-.443-1.116-.443-1.793 0-.669.148-1.262.443-1.781a3.145 3.145 0 0 1 1.235-1.215c.527-.291 1.133-.437 1.819-.437zm0 1.041c-.446 0-.842.103-1.19.309-.346.206-.616.49-.81.855a2.61 2.61 0 0 0-.289 1.24c0 .472.097.892.29 1.26.193.37.463.654.81.856.347.201.743.302 1.189.302.437 0 .83-.101 1.176-.302a2.08 2.08 0 0 0 .81-.855c.193-.369.29-.789.29-1.26a2.61 2.61 0 0 0-.29-1.241 2.133 2.133 0 0 0-.81-.855 2.263 2.263 0 0 0-1.176-.309zm6.351.463c.223-.488.54-.86.952-1.112.411-.253.9-.384 1.466-.392v1.157c-.695-.026-1.256.154-1.685.54-.428.386-.673.904-.733 1.556v3.587h-1.195V20.84h1.195v1.466zm6.442-1.504c1.054 0 1.851.31 2.391.932.54.621.81 1.485.81 2.59 0 .172-.004.3-.013.386h-5.374c.094.609.35 1.093.765 1.453.416.36.928.54 1.537.54.402 0 .777-.073 1.125-.218.347-.146.649-.352.906-.617l.656.681c-.335.36-.737.639-1.209.836a4.028 4.028 0 0 1-1.568.295c-.669 0-1.263-.143-1.781-.43a3.026 3.026 0 0 1-1.209-1.215c-.287-.523-.43-1.119-.43-1.787 0-.669.143-1.263.43-1.781a3.136 3.136 0 0 1 1.202-1.222c.515-.295 1.102-.443 1.762-.443zm2.121 2.983c-.034-.617-.24-1.104-.617-1.46-.377-.355-.874-.533-1.491-.533-.6 0-1.1.18-1.498.54-.399.36-.637.844-.714 1.453h4.32zM44.508 9.193c.481 0 .916.107 1.305.322.389.214.694.51.916.887.221.377.332.8.332 1.266 0 .467-.112.888-.336 1.266a2.386 2.386 0 0 1-.923.887 2.69 2.69 0 0 1-1.315.322h-1.994v-4.95h2.015zm.014 4.335c.345 0 .657-.08.937-.24.28-.161.502-.383.665-.665.163-.283.244-.6.244-.948a1.86 1.86 0 0 0-.248-.955 1.802 1.802 0 0 0-.675-.668 1.886 1.886 0 0 0-.95-.244h-1.323v3.72h1.35zm5-3.147c.372 0 .703.08.993.24.29.16.517.383.68.669.162.285.243.611.243.979s-.081.695-.244.983a1.723 1.723 0 0 1-.679.672c-.29.16-.62.24-.993.24-.377 0-.71-.08-1-.24a1.73 1.73 0 0 1-.68-.669 1.956 1.956 0 0 1-.244-.986c0-.368.082-.694.244-.98a1.73 1.73 0 0 1 .68-.668c.29-.16.623-.24 1-.24zm0 .573c-.245 0-.463.056-.654.17-.191.113-.34.27-.446.47-.106.2-.159.427-.159.682 0 .26.053.49.16.693.105.203.254.36.445.47.19.111.409.166.654.166.24 0 .456-.055.647-.166.19-.11.34-.267.445-.47.106-.203.16-.434.16-.693 0-.255-.054-.482-.16-.682a1.173 1.173 0 0 0-.445-.47 1.245 1.245 0 0 0-.647-.17zm2.213-.552h.686l1.047 3.09 1.032-3.09h.686l1.04 3.09 1.032-3.09h.679l-1.38 3.74h-.685l-1.032-2.94-1.033 2.94h-.686l-1.386-3.74zm8.896-.021c.439 0 .783.128 1.032.385.25.257.375.612.375 1.065v2.312h-.657v-2.136c0-.316-.089-.562-.266-.739-.176-.176-.42-.265-.731-.265-.335.005-.607.112-.817.322-.21.21-.329.482-.357.817v2h-.658v-3.74h.658v.792c.25-.533.723-.804 1.421-.813zm2.616-1.485h.658v5.247h-.658V8.896zm3.536 1.485c.373 0 .704.08.994.24.29.16.516.383.679.669.162.285.244.611.244.979s-.082.695-.244.983a1.723 1.723 0 0 1-.68.672c-.29.16-.62.24-.993.24-.377 0-.71-.08-1-.24a1.73 1.73 0 0 1-.68-.669 1.956 1.956 0 0 1-.243-.986c0-.368.081-.694.244-.98a1.73 1.73 0 0 1 .679-.668c.29-.16.623-.24 1-.24zm0 .573c-.245 0-.463.056-.654.17-.19.113-.34.27-.445.47-.106.2-.16.427-.16.682 0 .26.054.49.16.693.106.203.254.36.445.47.191.111.41.166.654.166.24 0 .456-.055.647-.166.191-.11.34-.267.446-.47.106-.203.159-.434.159-.693 0-.255-.053-.482-.16-.682a1.173 1.173 0 0 0-.445-.47 1.245 1.245 0 0 0-.647-.17zm5.12 3.189v-.523c-.278.367-.714.551-1.308.551-.26 0-.487-.05-.683-.148a1.093 1.093 0 0 1-.452-.41 1.107 1.107 0 0 1-.16-.587c0-.335.124-.6.372-.796.247-.196.593-.296 1.036-.3h1.188v-.177c0-.264-.081-.468-.244-.612-.163-.144-.4-.216-.71-.216-.378 0-.762.135-1.153.403l-.276-.452c.269-.175.517-.3.746-.378.228-.078.5-.117.817-.117.466 0 .827.114 1.081.343.255.228.385.548.39.958l.006 2.46h-.65zm-1.174-.516c.307 0 .567-.075.781-.223a.878.878 0 0 0 .386-.59v-.375H70.8c-.297 0-.518.044-.661.134-.144.09-.216.231-.216.424a.55.55 0 0 0 .22.46c.145.113.34.17.586.17zm6.485-4.731v5.247h-.658V13.4c-.142.25-.331.442-.57.577a1.662 1.662 0 0 1-.83.201c-.354 0-.666-.081-.937-.244a1.676 1.676 0 0 1-.633-.679 2.121 2.121 0 0 1-.226-.993c0-.368.075-.694.226-.98.15-.285.362-.507.633-.668.27-.16.58-.24.93-.24.32 0 .6.066.841.198.24.132.43.323.566.573v-2.25h.658zm-1.924 4.717c.245 0 .463-.057.654-.17.191-.113.34-.271.45-.474.108-.203.162-.431.162-.686 0-.26-.054-.49-.163-.693a1.192 1.192 0 0 0-.449-.474 1.258 1.258 0 0 0-.654-.17 1.217 1.217 0 0 0-1.103.65 1.431 1.431 0 0 0-.163.687c0 .255.055.483.163.686.108.203.258.36.449.474.191.113.409.17.654.17zm6.654-3.232c.373 0 .704.08.994.24.29.16.516.383.679.669.162.285.244.611.244.979s-.082.695-.244.983a1.723 1.723 0 0 1-.68.672c-.289.16-.62.24-.993.24-.377 0-.71-.08-1-.24a1.73 1.73 0 0 1-.68-.669 1.956 1.956 0 0 1-.243-.986c0-.368.081-.694.244-.98a1.73 1.73 0 0 1 .679-.668c.29-.16.623-.24 1-.24zm0 .573c-.245 0-.463.056-.654.17-.19.113-.34.27-.445.47-.106.2-.16.427-.16.682 0 .26.054.49.16.693.106.203.254.36.445.47.191.111.41.166.654.166.24 0 .456-.055.647-.166.191-.11.34-.267.446-.47.106-.203.159-.434.159-.693 0-.255-.053-.482-.16-.682a1.173 1.173 0 0 0-.445-.47 1.245 1.245 0 0 0-.647-.17zm4.915-.573c.438 0 .783.128 1.032.385.25.257.375.612.375 1.065v2.312h-.657v-2.136c0-.316-.089-.562-.266-.739-.176-.176-.42-.265-.732-.265-.334.005-.606.112-.816.322-.21.21-.33.482-.357.817v2h-.658v-3.74h.658v.792c.25-.533.723-.804 1.421-.813zm6.442 3.514c-.288.184-.58.276-.877.276-.297 0-.537-.088-.721-.265-.184-.177-.276-.444-.276-.803v-2.072h-.53v-.502h.53V9.525h.665v1.004h1.145v.502h-1.145v1.952c0 .208.038.356.113.446.075.09.189.134.34.134.179 0 .372-.059.58-.177l.176.51zm2.92-3.514c.439 0 .783.128 1.033.385.25.257.375.612.375 1.065v2.312h-.658v-2.136c0-.316-.088-.562-.265-.739-.177-.176-.42-.265-.732-.265-.363.005-.65.127-.863.368-.212.24-.318.551-.318.933v1.839h-.658V8.896h.658v2.312c.25-.542.726-.818 1.429-.827zm4.08 0c.58 0 1.02.17 1.316.513.297.341.446.816.446 1.424 0 .095-.003.165-.008.213H99.1c.051.334.192.6.42.799.229.198.51.297.845.297.222 0 .428-.04.62-.12.19-.08.356-.194.498-.34l.36.375a1.89 1.89 0 0 1-.664.46c-.26.108-.547.162-.863.162-.368 0-.694-.079-.98-.237a1.664 1.664 0 0 1-.664-.668 2.008 2.008 0 0 1-.237-.983c0-.368.079-.694.237-.98.158-.285.378-.509.661-.671.283-.163.606-.244.969-.244zm1.168 1.64c-.02-.339-.132-.607-.34-.802-.207-.196-.48-.294-.82-.294-.33 0-.605.1-.824.297-.22.198-.35.465-.392.8h2.376z"/>
            <g>
                <path d="M28.424 22.439c-.29.966-.749 1.932-1.375 2.897-.96 1.515-1.918 2.272-2.872 2.272-.365 0-.886-.124-1.564-.37-.64-.248-1.203-.372-1.688-.372-.454 0-.983.128-1.586.383-.604.263-1.096.394-1.476.394-1.132 0-2.253-1-3.363-3.002-1.095-2.017-1.643-3.96-1.643-5.83 0-1.761.421-3.206 1.263-4.334.834-1.113 1.892-1.67 3.174-1.67.536 0 1.195.117 1.978.348.774.232 1.288.348 1.542.348.335 0 .868-.131 1.598-.394.76-.263 1.404-.394 1.933-.394.886 0 1.68.251 2.38.753.388.278.775.665 1.162 1.16-.588.517-1.013.973-1.274 1.367a4.234 4.234 0 0 0-.726 2.4c0 .957.257 1.819.771 2.584.514.765 1.103 1.251 1.766 1.46zM24.222 8.844c0 .471-.108.997-.324 1.576a4.77 4.77 0 0 1-1.04 1.6c-.402.417-.804.695-1.206.834-.276.085-.663.15-1.162.197.022-1.151.312-2.144.871-2.979.552-.826 1.483-1.398 2.794-1.715.007.023.017.066.028.128.011.061.02.104.028.127 0 .031.002.07.005.116.004.046.006.085.006.116z"/>
            </g>
        </g>
    </g>
</svg>
