<svg xmlns="http://www.w3.org/2000/svg" xmlns:xlink="http://www.w3.org/1999/xlink" width="135" height="39" viewBox="0 0 135 39">
    <defs>
        <linearGradient id="b" x1="19.215%" x2="69.302%" y1="-35.157%" y2="93.537%">
            <stop offset="0%" stop-color="#19A3B4"/>
            <stop offset="34.817%" stop-color="#5BC3AF"/>
            <stop offset="92.234%" stop-color="#C8F7A6"/>
            <stop offset="100%" stop-color="#D7FEA5"/>
        </linearGradient>
        <path id="a" d="M13.539 6.615L1.743.198C1.409.017 1.1-.025.85.052l9.662 9.558 3.027-2.995"/>
        <linearGradient id="c" x1="-14.698%" x2="74.844%" y1="-114.322%" y2="114.156%">
            <stop offset="0%" stop-color="#FC227C"/>
            <stop offset="100%" stop-color="#FEEB7B"/>
        </linearGradient>
        <linearGradient id="e" x1="28.151%" x2="48.188%" y1="-14.814%" y2="82.894%">
            <stop offset="0%" stop-color="#0E4DA0"/>
            <stop offset="100%" stop-color="#6BFED4"/>
        </linearGradient>
        <path id="d" d="M.85.052C.49.162.259.522.259 1.066L.26 18.178c0 .537.225.891.573 1.01l9.678-9.576L.85.052"/>
        <linearGradient id="g" x1="132.245%" x2="5.959%" y1="16.466%" y2="126.31%">
            <stop offset="0%" stop-color="#FC472E"/>
            <stop offset=".332%" stop-color="#FC472F"/>
            <stop offset="100%" stop-color="#893CD8"/>
        </linearGradient>
        <path id="f" d="M.834 19.187c.252.085.566.045.909-.14l11.81-6.427-3.041-3.008-9.678 9.575"/>
    </defs>
    <g fill="none" fill-rule="evenodd">
        <rect width="135" height="38.571" fill="#FFF" rx="19.286"/>
        <path fill="#000" d="M49.294 23.246h1.093v3.304c-.454.36-.986.647-1.594.861a5.43 5.43 0 0 1-1.813.322 4.749 4.749 0 0 1-2.379-.61 4.524 4.524 0 0 1-1.703-1.672 4.497 4.497 0 0 1-.624-2.321c0-.84.21-1.61.63-2.308.42-.698.995-1.25 1.723-1.652a4.911 4.911 0 0 1 2.417-.604 5.19 5.19 0 0 1 1.832.334 4.92 4.92 0 0 1 1.55.913l-.707.9a3.92 3.92 0 0 0-1.241-.778 3.875 3.875 0 0 0-1.434-.276 3.514 3.514 0 0 0-3.053 1.722 3.384 3.384 0 0 0-.47 1.749c0 .634.159 1.22.476 1.755.317.536.746.96 1.286 1.273.54.313 1.131.47 1.774.47.377 0 .76-.063 1.15-.187.39-.125.753-.298 1.087-.521v-2.674zm6.146-2.443c.677 0 1.28.146 1.806.437.528.291.939.696 1.235 1.215.295.519.443 1.112.443 1.78 0 .67-.148 1.265-.443 1.788-.296.523-.707.93-1.235 1.221-.527.292-1.129.437-1.806.437-.686 0-1.292-.145-1.82-.437a3.145 3.145 0 0 1-1.234-1.215c-.295-.518-.443-1.116-.443-1.793 0-.669.148-1.262.443-1.781a3.145 3.145 0 0 1 1.235-1.215c.527-.291 1.133-.437 1.819-.437zm0 1.041c-.446 0-.842.103-1.19.309-.346.206-.616.49-.81.855a2.61 2.61 0 0 0-.289 1.24c0 .472.097.892.29 1.26.193.37.463.654.81.856.347.201.743.302 1.189.302.437 0 .83-.101 1.176-.302a2.08 2.08 0 0 0 .81-.855c.193-.369.29-.789.29-1.26a2.61 2.61 0 0 0-.29-1.241 2.133 2.133 0 0 0-.81-.855 2.263 2.263 0 0 0-1.176-.309zm7.984-1.041c.677 0 1.28.146 1.807.437.527.291.938.696 1.234 1.215.296.519.444 1.112.444 1.78 0 .67-.148 1.265-.444 1.788-.296.523-.707.93-1.234 1.221-.527.292-1.13.437-1.807.437-.685 0-1.292-.145-1.819-.437a3.145 3.145 0 0 1-1.234-1.215c-.296-.518-.444-1.116-.444-1.793 0-.669.148-1.262.444-1.781a3.145 3.145 0 0 1 1.234-1.215c.527-.291 1.134-.437 1.82-.437zm0 1.041c-.445 0-.842.103-1.189.309-.347.206-.617.49-.81.855a2.61 2.61 0 0 0-.29 1.24c0 .472.097.892.29 1.26.193.37.463.654.81.856.347.201.744.302 1.19.302.436 0 .829-.101 1.176-.302a2.08 2.08 0 0 0 .81-.855c.193-.369.289-.789.289-1.26a2.61 2.61 0 0 0-.29-1.241 2.133 2.133 0 0 0-.81-.855 2.263 2.263 0 0 0-1.176-.309zm11.173-1.003v6.108c0 .651-.143 1.221-.43 1.71a2.858 2.858 0 0 1-1.216 1.125c-.522.261-1.131.392-1.825.392-1.003 0-1.937-.317-2.803-.952l.527-.874a3.62 3.62 0 0 0 1.041.61c.36.134.755.2 1.183.2.703 0 1.265-.197 1.685-.591.42-.395.63-.922.63-1.582v-.951c-.24.411-.566.73-.978.958-.411.227-.882.34-1.414.34-.608 0-1.146-.139-1.613-.418a2.848 2.848 0 0 1-1.087-1.163c-.257-.497-.386-1.067-.386-1.71 0-.634.129-1.196.386-1.684.257-.489.62-.87 1.087-1.145.467-.274 1.005-.411 1.613-.411.54 0 1.014.111 1.42.334.408.223.732.54.972.952V20.84h1.208zM71.23 26.37c.42 0 .792-.099 1.118-.296.326-.197.58-.469.765-.816a2.47 2.47 0 0 0 .277-1.177c0-.445-.093-.842-.277-1.189a2.066 2.066 0 0 0-.765-.816 2.117 2.117 0 0 0-1.118-.296c-.42 0-.795.099-1.125.296-.33.197-.59.469-.778.816a2.451 2.451 0 0 0-.283 1.19c.008.668.214 1.217.617 1.645.403.429.926.643 1.569.643zm5.618-8.267h1.196v9.54h-1.196v-9.54zm6.326 2.7c1.054 0 1.851.31 2.391.932.54.621.81 1.485.81 2.59 0 .172-.004.3-.013.386h-5.374c.094.609.35 1.093.765 1.453.416.36.928.54 1.537.54.402 0 .777-.073 1.125-.218.347-.146.649-.352.906-.617l.656.681c-.335.36-.737.639-1.209.836a4.028 4.028 0 0 1-1.568.295c-.669 0-1.263-.143-1.781-.43a3.026 3.026 0 0 1-1.209-1.215c-.287-.523-.43-1.119-.43-1.787 0-.669.143-1.263.43-1.781a3.136 3.136 0 0 1 1.202-1.222c.515-.295 1.102-.443 1.762-.443zm2.121 2.983c-.034-.617-.24-1.104-.617-1.46-.377-.355-.874-.533-1.491-.533-.6 0-1.1.18-1.498.54-.399.36-.637.844-.714 1.453h4.32zm9.669-5.143c1.123 0 1.99.266 2.603.797.613.531.92 1.277.92 2.237 0 1.003-.309 1.78-.926 2.334-.617.553-1.483.829-2.597.829h-2.237v2.803H91.49v-9h3.472zm-.052 5.078c.772 0 1.363-.169 1.775-.507.411-.339.617-.838.617-1.498 0-.643-.206-1.13-.617-1.46-.412-.33-1.003-.495-1.775-.495l-2.185.013v3.947h2.185zm5.156-5.618h1.196v9.54h-1.196v-9.54zm7.753 9.54v-.952c-.506.669-1.299 1.003-2.379 1.003-.471 0-.885-.09-1.24-.27a1.987 1.987 0 0 1-.823-.745 2.013 2.013 0 0 1-.29-1.068c0-.608.226-1.09.676-1.446.45-.356 1.077-.538 1.883-.546h2.16v-.322c0-.48-.148-.85-.443-1.112-.296-.261-.727-.392-1.293-.392-.685 0-1.384.244-2.095.733l-.502-.823c.489-.317.941-.547 1.357-.688.415-.141.91-.212 1.485-.212.848 0 1.504.208 1.967.623.463.416.698.997.707 1.743l.013 4.474h-1.183zm-2.134-.939c.557 0 1.03-.135 1.42-.405.39-.27.624-.628.701-1.073v-.682h-1.993c-.54 0-.94.082-1.202.245-.261.162-.392.42-.392.771 0 .351.133.63.399.836.265.205.621.308 1.067.308zm7.83 1.903c-.215.523-.5.917-.855 1.183a2.036 2.036 0 0 1-1.254.399c-.291 0-.557-.043-.797-.129a2.38 2.38 0 0 1-.694-.399l.514-.938c.3.214.604.321.913.321.514 0 .9-.291 1.157-.874l.257-.604-2.816-6.725h1.26l2.16 5.452 2.045-5.452h1.221l-3.111 7.766z"/>
        <path fill="#8392A7" d="M45.915 11.724h.601v1.818c-.25.198-.542.356-.876.474a2.987 2.987 0 0 1-.997.176c-.477 0-.913-.112-1.309-.336a2.488 2.488 0 0 1-.937-.919 2.473 2.473 0 0 1-.343-1.276c0-.462.116-.885.347-1.27a2.49 2.49 0 0 1 .947-.908c.401-.222.844-.333 1.33-.333.344 0 .68.062 1.008.184.327.123.611.29.852.502l-.39.495a2.156 2.156 0 0 0-.682-.427 2.131 2.131 0 0 0-.788-.152 1.933 1.933 0 0 0-1.68.947 1.861 1.861 0 0 0-.258.962c0 .349.088.67.262.965a1.937 1.937 0 0 0 1.683.958c.207 0 .418-.034.633-.102.214-.069.414-.164.597-.287v-1.47zm3.324-1.343c.58 0 1.018.17 1.315.513.297.341.446.816.446 1.424 0 .095-.003.165-.007.213h-2.956c.052.334.192.6.42.799.23.198.51.297.846.297.221 0 .427-.04.618-.12.191-.08.357-.194.499-.34l.36.375a1.89 1.89 0 0 1-.664.46c-.26.108-.547.162-.863.162-.368 0-.694-.079-.98-.237a1.664 1.664 0 0 1-.664-.668 2.008 2.008 0 0 1-.237-.983c0-.368.08-.694.237-.98.158-.285.378-.509.661-.671.283-.163.606-.244.969-.244zm1.167 1.64c-.02-.339-.132-.607-.34-.802-.207-.196-.48-.294-.82-.294-.33 0-.605.1-.824.297-.219.198-.35.465-.392.8h2.376zm3.5 1.874c-.287.184-.58.276-.877.276-.297 0-.537-.088-.721-.265-.184-.177-.276-.444-.276-.803v-2.072h-.53v-.502h.53V9.525h.665v1.004h1.145v.502h-1.145v1.952c0 .208.038.356.113.446.076.09.189.134.34.134.179 0 .372-.059.58-.177l.176.51zm2.652-3.493h.658v3.74h-.658v-3.74zm.325-1.492c.118 0 .216.04.294.12.077.08.116.182.116.304a.419.419 0 0 1-.116.304.392.392 0 0 1-.294.12.392.392 0 0 1-.293-.12.419.419 0 0 1-.117-.304c0-.122.039-.224.117-.304a.392.392 0 0 1 .293-.12zm3.62 4.985c-.287.184-.58.276-.876.276-.297 0-.537-.088-.721-.265-.184-.177-.276-.444-.276-.803v-2.072h-.53v-.502h.53V9.525h.665v1.004h1.145v.502h-1.145v1.952c0 .208.037.356.113.446.075.09.188.134.34.134.178 0 .372-.059.579-.177l.177.51zm4.208-3.514c.373 0 .704.08.994.24.29.16.516.383.679.669.162.285.244.611.244.979s-.082.695-.244.983a1.723 1.723 0 0 1-.68.672c-.29.16-.62.24-.993.24-.377 0-.71-.08-1-.24a1.73 1.73 0 0 1-.68-.669 1.956 1.956 0 0 1-.243-.986c0-.368.081-.694.244-.98a1.73 1.73 0 0 1 .679-.668c.29-.16.623-.24 1-.24zm0 .573c-.245 0-.463.056-.654.17-.19.113-.34.27-.445.47-.106.2-.16.427-.16.682 0 .26.054.49.16.693.106.203.254.36.445.47.191.111.41.166.654.166.24 0 .456-.055.647-.166.191-.11.34-.267.446-.47.106-.203.159-.434.159-.693 0-.255-.053-.482-.16-.682a1.173 1.173 0 0 0-.445-.47 1.245 1.245 0 0 0-.647-.17zm4.915-.573c.438 0 .782.128 1.032.385s.375.612.375 1.065v2.312h-.658v-2.136c0-.316-.088-.562-.265-.739-.176-.176-.42-.265-.732-.265-.334.005-.607.112-.816.322-.21.21-.33.482-.357.817v2h-.658v-3.74h.658v.792c.25-.533.723-.804 1.42-.813z"/>
        <g transform="translate(12.857 9.643)">
            <use fill="url(#b)" xlink:href="#a"/>
            <path fill="url(#c)" d="M13.554 12.62l4.027-2.19c.817-.446.817-1.171 0-1.616L13.54 6.615 10.512 9.61l3.042 3.01"/>
            <use fill="url(#e)" xlink:href="#d"/>
            <use fill="url(#g)" xlink:href="#f"/>
        </g>
    </g>
</svg>
