<svg xmlns="http://www.w3.org/2000/svg" xmlns:xlink="http://www.w3.org/1999/xlink" width="178" height="225" viewBox="0 0 178 225">
    <defs>
        <path id="a" d="M.77.75h127.46V2.5H.77z"/>
    </defs>
    <g fill="none" fill-rule="evenodd" opacity=".06">
        <path stroke="#FFF" stroke-linecap="round" stroke-linejoin="round" d="M167 224v-22M159.5 214a10.75 10.75 0 0 1-3.5-7.96c0-5.903 4.704-32.04 10.5-32.04 5.803 0 10.5 26.137 10.5 32.04 0 3.161-1.347 6.002-3.493 7.96M11 224v-22M4.5 214a10.75 10.75 0 0 1-3.5-7.96C1 200.137 5.704 174 11.5 174c5.803 0 10.5 26.137 10.5 32.04 0 3.161-1.348 6.002-3.493 7.96M110 224V33H68v191M75 210V61M82 210V61M89 210V61M75 54V40M82 54V40M89 54V40M96 210V61M96 54V40M103 210V61M103 54V40M117 61h4M121 61v163M128 82h7M135 82v142M121 72h-4M121 82h-4M121 93h-4M121 103h-4M121 114h-4M121 125h-4M121 135h-4M121 146h-4M121 156h-4M121 167h-4M121 178h-4M121 188h-4M121 199h-4M121 210h-4M61 61h-4M57 61v163M57 72h4M57 82h4M57 93h4M57 103h4M57 114h4M57 125h4M57 135h4M57 146h4M57 156h4M57 167h4M57 178h4M57 188h4M57 199h4M57 210h4M128 89v120M50 82h-7M43 82v142M50 89v120M89 26V1M75 30l4-4M78 26h21M100 26l4 4M89 224v-7"/>
        <g transform="translate(25 223)">
            <mask id="b" fill="#fff">
                <use xlink:href="#a"/>
            </mask>
            <path stroke="#FFF" stroke-linecap="round" stroke-linejoin="round" d="M.77.75h127.46" mask="url(#b)"/>
        </g>
    </g>
</svg>
