<svg xmlns="http://www.w3.org/2000/svg" xmlns:xlink="http://www.w3.org/1999/xlink" width="120" height="109" viewBox="0 0 120 109">
    <defs>
        <path id="a" d="M0 108.75h120V0H0z"/>
    </defs>
    <g fill="none" fill-rule="evenodd">
        <path stroke="#FF8F00" stroke-linecap="round" stroke-linejoin="round" d="M47.813 37.5c0 8.801-7.137 15.938-15.938 15.938-8.801 0-15.938-7.137-15.938-15.938 0-8.803 7.137-15.938 15.938-15.938 8.801 0 15.938 7.135 15.938 15.938z"/>
        <path stroke="#FF8F00" stroke-linecap="round" stroke-linejoin="round" d="M47.813 41.25c0 8.801-7.137 15.938-15.938 15.938-8.801 0-15.938-7.137-15.938-15.938M15.938 41.25V37.5M47.813 41.25V37.5"/>
        <path stroke="#FF8F00" stroke-linecap="round" stroke-linejoin="round" d="M38.438 37.5a6.561 6.561 0 0 1-6.563 6.563 6.561 6.561 0 0 1-6.563-6.563 6.561 6.561 0 0 1 6.563-6.563 6.561 6.561 0 0 1 6.563 6.563zM25.583 39.375a6.567 6.567 0 0 1 12.584 0M27.178 32.803l-6.572-6.572M31.875 44.063v9.374"/>
        <mask id="b" fill="#fff">
            <use xlink:href="#a"/>
        </mask>
        <path stroke="#EFF2F7" stroke-linecap="round" stroke-linejoin="round" d="M58.125 4.688h3.75V.938h-3.75zM4.688 83.438h110.624v-71.25H4.689zM.938 12.188h118.124v-7.5H.939zM6.563 8.438h106.874M60 95.156l25.313 12.656M60 91.406l32.813 16.406M92.813 107.813h-7.5M60 95.156l-25.313 12.656M60 91.406l-32.813 16.406M27.188 107.813h7.5M58.125 92.344v-8.906M61.875 92.344v-8.906M61.875 96.094v11.719M61.875 107.813h-3.75M58.125 107.813v-11.72M60 77.813v-60M70.313 23.438v31.875M70.313 55.313h35.624M70.313 64.688h35.624M74.063 68.438h28.124M79.688 72.188h16.874M14.063 64.688h35.624M17.813 68.438h28.125M23.438 72.188h16.875" mask="url(#b)"/>
        <path stroke="#B8E986" stroke-linecap="round" stroke-linejoin="round" d="M74.063 47.813l11.25-11.25M85.313 36.563l5.624 5.624M105.938 27.188l-15 15M105.938 27.188v3.75M105.938 27.188h-3.75" mask="url(#b)"/>
    </g>
</svg>
