<svg xmlns="http://www.w3.org/2000/svg" width="22" height="22" viewBox="0 0 22 22">
    <g fill="none" fill-rule="evenodd" stroke="#FF8F00" stroke-linecap="round" stroke-linejoin="round">
        <path d="M10.1 15.4a7.12 7.12 0 0 1-3.067.033 2.917 2.917 0 0 1-2.7 1.817c-.45 0-.866-.108-1.25-.292a2.872 2.872 0 0 0 1.65-2.458v-.008.008-.008A7.065 7.065 0 0 1 1.417 8.5 7.088 7.088 0 0 1 8.5 1.417 7.09 7.09 0 0 1 15.575 8.1"/>
        <path d="M15.033 18.908a2.905 2.905 0 0 0 2.634 1.675c.45 0 .866-.108 1.25-.291a2.879 2.879 0 0 1-1.55-1.842 5.406 5.406 0 0 0 3.216-4.95 5.413 5.413 0 0 0-5.416-5.417A5.417 5.417 0 0 0 9.75 13.5c0 .667.125 1.308.35 1.9a5.387 5.387 0 0 0 4.933 3.508z"/>
    </g>
</svg>
