<svg xmlns="http://www.w3.org/2000/svg" width="20" height="20" viewBox="0 0 20 20">
    <path fill="#FFF" fill-rule="nonzero" d="M19.376.917c-.322-.42-.82-.66-1.369-.66-.354 0-.72.098-1.09.292L1.18 8.8C.061 9.387-.016 10.272.002 10.624c.018.355.19 1.226 1.362 1.692l2.012.795a3.43 3.43 0 0 0 1.267.229c.073 0 .142-.01.214-.013-.027.035-.06.063-.086.1-.375.56-.393 1.32-.054 2.139l.016.038a167.222 167.222 0 0 1 1.336 3.012c.197.514.7.868 1.25.868.85 0 1.101-.41 2.49-2.67.108-.166.349-.551.39-1.041l.445.179 2.228.908c.447.182.838.343 1.044.428a1.338 1.338 0 0 0 .694.196c1.013 0 1.256-.878 1.386-1.348.065-.233.154-.555.25-.91l3.398-12.488c.256-.943-.059-1.545-.268-1.821zM8.686 16.103s-1.26 2.053-1.367 2.053c-.003 0-.005-.002-.006-.005-.124-.332-1.37-3.093-1.37-3.093-.23-.554-.188-1.028.207-1.028.086 0 .19.023.311.074l.968.503c.161.11.338.206.532.282l.049.018.09.046c.748.396.986.539.587 1.15zm9.676-13.715l-3.397 12.488c-.192.703-.352 1.279-.355 1.279-.003-.002-.006-.015-.006-.017 0-.005-.554-.231-1.231-.508l-2.23-.909a189.85 189.85 0 0 0-2.468-.98l-.113-.045-.416-.216c-.413-.316-.449-.838-.034-1.28l6.898-7.386c.277-.295.381-.448.321-.448-.047 0-.2.098-.457.3L6.147 11.55c-.381.297-.96.463-1.503.463-.279 0-.55-.045-.78-.136l-2.01-.795c-.678-.269-.704-.765-.058-1.106l15.739-8.252c.181-.095.34-.14.472-.14.339 0 .493.297.355.804z"/>
</svg>
