<svg xmlns="http://www.w3.org/2000/svg" width="20" height="15" viewBox="0 0 20 15">
    <path fill="none" fill-rule="evenodd" stroke="#FFF" stroke-linecap="round" stroke-linejoin="round" d="M16.955 6.735c1.074-.089 1.803-.577 2.083-1.24-.388.238-1.59.498-2.254.25a8.24 8.24 0 0 0-.105-.437c-.506-1.859-2.238-3.356-4.054-3.175.147-.06.296-.115.444-.164.2-.072 1.373-.262 1.188-.676-.156-.364-1.588.275-1.858.358.356-.133.945-.364 1.008-.773a2.841 2.841 0 0 0-1.494.708c.149-.161.262-.357.286-.568-1.455.93-2.305 2.803-2.992 4.621-.54-.523-1.019-.935-1.448-1.164-1.205-.646-2.645-1.32-4.907-2.16-.07.749.37 1.743 1.636 2.405-.274-.037-.776.045-1.177.141.164.857.697 1.563 2.142 1.904-.66.044-1.002.194-1.31.518.3.596 1.033 1.298 2.353 1.154-1.467.632-.598 1.803.596 1.629-2.037 2.103-5.248 1.949-7.092.19 4.815 6.56 15.28 3.88 16.84-2.44 1.169.01 1.856-.405 2.282-.862-.673.114-1.65-.004-2.167-.22z"/>
</svg>
